<svg width="400" height="400" viewBox="0 0 400 400" fill="none" xmlns="http://www.w3.org/2000/svg">
<rect width="400" height="400" rx="98.3038" fill="white"/>
<path fill-rule="evenodd" clip-rule="evenodd" d="M237.784 87.9408V65.8228H268.354V312.425L244.185 325.206C236.024 319.216 216.652 311.044 196.08 309.65C175.718 308.27 158.25 313.622 148.02 329.114L122.723 311.475C141.535 282.987 172.216 276.55 198.092 278.304C212.136 279.255 227.084 285.722 237.784 293.395V237.757C209.433 250.011 181.336 254.798 157.755 248.202C142.32 243.884 129.09 234.708 119.907 220.278C110.974 206.24 106.556 188.332 106.338 167.309C106.338 167.05 106.33 166.791 106.332 166.533C106.33 166.241 106.329 165.948 106.329 165.654H106.34C106.938 120.879 131.858 90.0144 165 79.3356C188.241 71.8469 214.544 74.5865 237.784 87.9408ZM237.784 120.415C218.194 101.318 193.649 103.027 174.147 109.311C153.895 115.836 137.166 134.643 136.903 166.549C137.023 183.654 140.569 195.348 145.493 203.085C150.272 210.594 156.999 215.433 165.784 217.89C182.85 222.664 208.197 224.688 237.784 209.474V120.415Z" fill="#FF338F"/>
</svg>
