
<svg width="400" height="400" viewBox="0 0 400 400" fill="none" xmlns="http://www.w3.org/2000/svg">
<path fill-rule="evenodd" clip-rule="evenodd" d="M21.0409 46.2397C0 75.4185 0 116.946 0 200C0 283.054 0 324.581 21.0409 353.76C28.0338 363.458 36.5422 371.966 46.2397 378.959C75.4185 400 116.946 400 200 400C283.054 400 324.581 400 353.76 378.959C363.458 371.966 371.966 363.458 378.959 353.76C400 324.581 400 283.054 400 200C400 116.946 400 75.4185 378.959 46.2397C371.966 36.5422 363.458 28.0338 353.76 21.0409C324.581 0 283.054 0 200 0C116.946 0 75.4185 0 46.2397 21.0409C36.5422 28.0338 28.0338 36.5422 21.0409 46.2397ZM237.783 65.8225V87.9406C214.544 74.5863 188.241 71.8466 165 79.3354C131.858 90.0142 106.938 120.879 106.34 165.653H106.329C106.329 165.947 106.33 166.241 106.331 166.533C106.33 166.674 106.332 166.815 106.334 166.957C106.336 167.074 106.337 167.191 106.337 167.308C106.556 188.332 110.973 206.24 119.906 220.278C129.09 234.708 142.32 243.884 157.754 248.201C181.336 254.798 209.432 250.011 237.783 237.757V293.395C227.084 285.722 212.136 279.255 198.092 278.304C172.216 276.55 141.535 282.987 122.723 311.475L148.019 329.114C158.25 313.622 175.718 308.27 196.08 309.65C216.652 311.044 236.023 319.216 244.184 325.206L268.354 312.424V65.8225H237.783ZM174.146 109.311C193.649 103.027 218.194 101.318 237.783 120.415V209.474C208.197 224.687 182.849 222.664 165.784 217.89C156.999 215.433 150.271 210.594 145.492 203.085C140.569 195.347 137.023 183.654 136.903 166.549C137.166 134.643 153.895 115.836 174.146 109.311Z" fill="white"/>
</svg>
